<?xml version="1.0" encoding="UTF-8" standalone="no"?>
<!-- Generator: Adobe Illustrator 19.1.0, SVG Export Plug-In . SVG Version: 6.00 Build 0)  -->

<svg
   xmlns:dc="http://purl.org/dc/elements/1.1/"
   xmlns:cc="http://creativecommons.org/ns#"
   xmlns:rdf="http://www.w3.org/1999/02/22-rdf-syntax-ns#"
   xmlns:svg="http://www.w3.org/2000/svg"
   xmlns="http://www.w3.org/2000/svg"
   xmlns:sodipodi="http://sodipodi.sourceforge.net/DTD/sodipodi-0.dtd"
   xmlns:inkscape="http://www.inkscape.org/namespaces/inkscape"
   version="1.1"
   id="Capa_1"
   x="0px"
   y="0px"
   viewBox="0 0 30 9.3325101"
   xml:space="preserve"
   sodipodi:docname="right-arrow.svg"
   width="30"
   height="9.33251"
   inkscape:version="0.92.4 5da689c313, 2019-01-14"><metadata
   id="metadata39"><rdf:RDF><cc:Work
       rdf:about=""><dc:format>image/svg+xml</dc:format><dc:type
         rdf:resource="http://purl.org/dc/dcmitype/StillImage" /><dc:title></dc:title></cc:Work></rdf:RDF></metadata><defs
   id="defs37" /><sodipodi:namedview
   pagecolor="#ffffff"
   bordercolor="#666666"
   borderopacity="1"
   objecttolerance="10"
   gridtolerance="10"
   guidetolerance="10"
   inkscape:pageopacity="0"
   inkscape:pageshadow="2"
   inkscape:window-width="1920"
   inkscape:window-height="1032"
   id="namedview35"
   showgrid="false"
   inkscape:zoom="7.4944427"
   inkscape:cx="-32.993092"
   inkscape:cy="4.6662544"
   inkscape:window-x="0"
   inkscape:window-y="32"
   inkscape:window-maximized="0"
   inkscape:current-layer="Capa_1"
   fit-margin-top="0"
   fit-margin-left="0"
   fit-margin-right="0"
   fit-margin-bottom="0" />
<path
   style="fill:#ffffff;stroke-width:4;stroke-miterlimit:4;stroke-dasharray:none"
   d="m 22.148426,0.14035617 c -0.297156,-0.187139 -0.791724,-0.187139 -1.099269,0 -0.297156,0.180817 -0.297156,0.481757 0,0.662152 L 26.62308,4.1941932 H 8.229896 c -0.428763,4.22e-4 -0.769557,0.207792 -0.769557,0.468691 0,0.260899 0.340794,0.475013 0.769557,0.475013 H 26.62308 l -5.573923,3.385363 c -0.297156,0.187139 -0.297156,0.488501 0,0.668896 0.307545,0.187139 0.802806,0.187139 1.099269,0 l 6.89346,-4.194613 c 0.307546,-0.180817 0.307546,-0.481757 0,-0.662152 z"
   id="path2"
   inkscape:connector-curvature="0" />
<g
   id="g4"
   transform="translate(-9.1087274,-11.078744)">
</g>
<g
   id="g6"
   transform="translate(-9.1087274,-11.078744)">
</g>
<g
   id="g8"
   transform="translate(-9.1087274,-11.078744)">
</g>
<g
   id="g10"
   transform="translate(-9.1087274,-11.078744)">
</g>
<g
   id="g12"
   transform="translate(-9.1087274,-11.078744)">
</g>
<g
   id="g14"
   transform="translate(-9.1087274,-11.078744)">
</g>
<g
   id="g16"
   transform="translate(-9.1087274,-11.078744)">
</g>
<g
   id="g18"
   transform="translate(-9.1087274,-11.078744)">
</g>
<g
   id="g20"
   transform="translate(-9.1087274,-11.078744)">
</g>
<g
   id="g22"
   transform="translate(-9.1087274,-11.078744)">
</g>
<g
   id="g24"
   transform="translate(-9.1087274,-11.078744)">
</g>
<g
   id="g26"
   transform="translate(-9.1087274,-11.078744)">
</g>
<g
   id="g28"
   transform="translate(-9.1087274,-11.078744)">
</g>
<g
   id="g30"
   transform="translate(-9.1087274,-11.078744)">
</g>
<g
   id="g32"
   transform="translate(-9.1087274,-11.078744)">
</g>
</svg>